<?xml version="1.0" encoding="UTF-8" standalone="no"?>
<svg
   xmlns:dc="http://purl.org/dc/elements/1.1/"
   xmlns:cc="http://creativecommons.org/ns#"
   xmlns:rdf="http://www.w3.org/1999/02/22-rdf-syntax-ns#"
   xmlns:svg="http://www.w3.org/2000/svg"
   xmlns="http://www.w3.org/2000/svg"
   xmlns:sodipodi="http://sodipodi.sourceforge.net/DTD/sodipodi-0.dtd"
   xmlns:inkscape="http://www.inkscape.org/namespaces/inkscape"
   width="99.473007mm"
   height="99.968475mm"
   viewBox="0 0 99.473007 99.968475"
   version="1.1"
   id="svg8"
   inkscape:version="1.0.1 (3bc2e813f5, 2020-09-07)"
   sodipodi:docname="duck.svg">
  <defs
     id="defs2" />
  <sodipodi:namedview
     id="base"
     pagecolor="#ffffff"
     bordercolor="#666666"
     borderopacity="1.0"
     inkscape:pageopacity="0.0"
     inkscape:pageshadow="2"
     inkscape:zoom="0.7"
     inkscape:cx="815.11861"
     inkscape:cy="440.63982"
     inkscape:document-units="mm"
     inkscape:current-layer="layer1"
     inkscape:document-rotation="0"
     showgrid="false"
     inkscape:window-width="1920"
     inkscape:window-height="1017"
     inkscape:window-x="1912"
     inkscape:window-y="-8"
     inkscape:window-maximized="1" />
  <metadata
     id="metadata5">
    <rdf:RDF>
      <cc:Work
         rdf:about="">
        <dc:format>image/svg+xml</dc:format>
        <dc:type
           rdf:resource="http://purl.org/dc/dcmitype/StillImage" />
        <dc:title></dc:title>
      </cc:Work>
    </rdf:RDF>
  </metadata>
  <g
     inkscape:label="Layer 1"
     inkscape:groupmode="layer"
     id="layer1">
    <path
       style="fill:#fdd622;fill-opacity:1;stroke-width:0.317384"
       d="m 3.7905312,78.792869 c 0,-8.08727 4.120434,-15.80921 10.7456708,-20.13806 4.405498,-2.87849 4.871827,-3.2578 5.795142,-4.71371 1.318677,-2.07935 1.218994,-2.89764 -0.503696,-4.13478 -0.780447,-0.56049 -2.315801,-2.0211 -3.411877,-3.24582 -1.714101,-1.91527 -2.436849,-2.44242 -5.166715,-3.76839 -5.4619268,-2.65302 -9.6164998,-5.72869 -10.81595283,-8.00713 -0.603775,-1.14692 -0.571315,-3.11487 0.06634,-4.02531 1.08144003,-1.54397 4.00779403,-2.03482 7.25835403,-1.21745 2.085125,0.52433 3.2344728,0.35552 3.8366408,-0.5635 0.269637,-0.41153 0.7001,-2.0799 0.95659,-3.70752 2.450596,-15.5509526 15.08109,-26.07296059 30.277698,-25.22324359 9.184706,0.513559 16.872447,4.79412299 21.716321,12.09171059 6.25493,9.423451 6.27913,22.834413 0.0581,32.176313 -1.6498,2.47742 -4.350924,5.32227 -6.376834,6.71613 -1.42874,0.983 -1.77623,1.82614 -1.15588,2.80465 0.14688,0.23167 1.60863,0.68686 3.24833,1.01151 1.6397,0.32466 3.731964,0.8193 4.649464,1.09921 1.58964,0.48496 1.77646,0.47702 3.9673,-0.16863 4.9679,-1.46405 9.4743,-3.99215 13.17084,-7.38885 1.26628,-1.16359 2.42244,-2.11561 2.56922,-2.11561 1.12178,0 2.53124,3.93819 2.81136,7.85525 0.10305,1.44014 0.27316,2.61705 0.37815,2.61537 0.42483,-0.007 4.63625,-3.37149 6.98222,-5.5784 1.41797,-1.33393 2.78086,-2.35315 3.14661,-2.35315 1.09941,0 1.48895,1.83927 1.47885,6.98245 -0.0108,5.21057 -0.69315,9.16954 -2.57102,14.90436 -1.65562,5.05611 -7.50567,11.72289 -9.55632,13.57869 -0.35731,0.32337 -0.64967,0.70863 -0.64967,0.85614 C 57.779503,107.20302 8.6388432,102.85383 3.7905272,78.792869 Z"
       id="path897-6"
       sodipodi:nodetypes="cssssssssssssssssssssccsscssccc" />
    <path
       id="path937"
       style="fill:#fda80e;fill-opacity:1;stroke:none;stroke-width:0.317384px;stroke-linecap:butt;stroke-linejoin:miter;stroke-opacity:1"
       d="M 40.223188,0.66727141 C 29.816591,1.8890654 27.288583,5.2115304 22.910265,8.0408684 c 2.526789,-1.419303 8.946048,-3.12727 10.259189,-2.404555 1.313141,0.722715 -2.084073,3.046143 -2.084073,3.046143 11.840014,-5.680871 12.285339,-0.100668 18.274993,0 12.915573,1.071698 17.331643,9.9619716 16.030373,21.8009326 -1.39545,12.69582 -10.500124,23.73828 -27.436359,20.40865 -5.221309,-1.02649 -7.002271,-3.4287 -7.670526,-6.10158 l -14.587261,-0.68126 6.091664,6.09166 -0.721553,4.16815 c 4.888976,3.19044 6.910245,2.4886 9.858739,3.04552 0.759281,0.37404 1.32318,0.74797 0,1.122 -10.328705,3.72669 -9.06586,4.09877 1.122,1.92352 4.045795,-0.86383 13.465877,-0.78682 16.117776,0.14134 -6.787288,0.41975 -13.062638,1.7058 -16.59881,4.02681 12.048714,-3.0398 18.335243,-3.96898 30.77819,-2.40456 -2.194484,0.45964 -3.428084,1.55986 -4.746504,2.60354 l 1.25837,0.96703 c 6.834974,-2.9247 12.215134,-1.76068 20.505364,-7.93832 l -4.93122,-3.00399 -6.79586,2.40208 -9.618234,-2.08345 -1.92352,-0.80152 v -3.04614 C 62.975737,46.206149 68.143527,40.157309 68.115787,31.284899 68.103587,14.426731 60.459223,3.0367294 40.223188,0.66727141 Z m 50.575629,55.46470759 -3.44659,2.16403 c 0.33842,12.27328 -5.08719,16.66971 -8.97725,23.16407 0.99505,-4.25768 3.28459,-6.18613 2.24462,-14.10684 -17.13539,36.826331 -45.526692,26.82145 -69.892661,22.12203 9.233042,5.11877 17.9066,10.610601 35.932577,9.86741 18.996404,-5.69746 41.567974,-6.22182 48.467384,-29.42434 l -3.92763,3.84704 c 2.07818,-3.55604 2.40037,-7.01453 1.76359,-10.41974 -0.22201,0.71044 -4.52819,4.24153 -2.08407,1.36252 0.43323,-0.51031 -0.0235,-8.59502 -0.08,-8.57618 z" />
    <path
       style="fill:#fd9c26;fill-opacity:1;stroke:none;stroke-width:0.317384px;stroke-linecap:butt;stroke-linejoin:miter;stroke-opacity:1"
       d="m 30.284171,44.790629 2.28432,-3.84728 -4.207956,-9.57811 -3.927427,-3.16599 -5.290003,0.40076 -11.1811418,1.84348 -5.690758,0.40076 -1.88356203,1.76333 3.08583603,4.56865 14.7879588,7.49417 8.776596,1.40264 z"
       id="path933" />
    <path
       id="path914"
       style="fill:#ffffff;fill-opacity:1;stroke:none;stroke-width:0.239912;stroke-linecap:round;stroke-linejoin:round"
       d="M 41.27948,1.9448654 C 32.309721,1.8893674 21.200813,6.8970894 17.938744,19.019131 22.909967,8.0413124 33.053621,1.0757444 45.979492,2.4835514 44.528565,2.1390404 42.940547,1.9551424 41.27948,1.9448654 Z M 28.494239,14.774121 c -0.785938,0.0073 -1.415497,0.327895 -1.415831,0.720931 -2.09e-4,0.398425 0.645639,0.721487 1.442488,0.721553 0.79685,-6.6e-5 1.442694,-0.323128 1.442485,-0.721553 -6.35e-4,-0.39818 -0.646121,-0.720865 -1.442485,-0.720931 -0.0089,-4.2e-5 -0.01777,-4.2e-5 -0.02666,0 z M 15.989188,19.81135 c -1.092192,0.0077 -1.975046,1.44257 -1.974973,3.209793 -6e-5,1.772691 0.888066,3.209792 1.98365,3.209792 1.095584,0 1.98371,-1.437101 1.98365,-3.209792 6e-5,-1.772691 -0.888066,-3.209793 -1.98365,-3.209793 -0.0029,-10e-6 -0.0058,-10e-6 -0.0087,0 z m 21.135787,5.94351 c -1.705694,0.02866 -3.073426,1.419549 -3.073416,3.125489 -1.08e-4,1.72631 1.399181,3.12587 3.125486,3.12611 1.726547,1.1e-4 3.126216,-1.39956 3.126108,-3.12611 -2.31e-4,-1.72631 -1.399803,-3.125597 -3.126108,-3.125489 -0.01736,-1.46e-4 -0.03471,-1.46e-4 -0.05207,0 z m -13.532211,2.262599 c -0.945182,-0.0153 -1.926146,0.17675 -2.846537,0.34218 -1.663612,0.29901 -4.929122,1.60307 -4.768818,1.7233 0.160302,0.12022 1.201968,1.0817 1.201968,1.0817 1.683183,-0.52098 3.287749,-1.54499 5.04963,-1.56274 2.126593,-0.0214 6.131337,1.76359 6.131337,1.76359 0,0 -1.775411,-2.50417 -3.125489,-3.04614 -0.520694,-0.20902 -1.074979,-0.2927 -1.642091,-0.30189 z m -18.7541658,2.01031 c -0.630696,0.0187 -1.252969,0.11033 -1.846036,0.29568 -0.75744,0.23674 -1.677745,0.64764 -1.923521,1.4022 -0.12167903,0.37357 0.0072,0.95131 0.360777,1.12262 0.668413,0.37437 1.547764,-1.00088 2.731238,-1.01618 4.718442,-0.061 13.9803908,4.38218 13.9803908,4.38218 0,0 -6.420061,-4.73031 -10.1792198,-5.77056 -0.998087,-0.27619 -2.07247,-0.44721 -3.123629,-0.41594 z m 49.0891308,5.42528 c -0.928973,6.3e-4 -1.681665,0.75403 -1.681764,1.683 1.02e-4,0.92946 0.753546,1.6829 1.683002,1.683 0.929456,-9e-5 1.682906,-0.75354 1.683006,-1.683 -10e-5,-0.92945 -0.75355,-1.6829 -1.683006,-1.683 z m -36.375178,23.25767 c -0.459077,-0.0216 -1.109009,0.1538 -1.780946,0.56224 -7.5500688,4.41673 -10.3010008,10.87551 -10.7687358,18.30599 0.165262,2.21107 2.56835,2.43359 2.38038,-0.0564 -0.322592,-8.70765 4.6227828,-11.817 10.0887178,-17.22986 1.080369,-0.96335 0.845714,-1.546 0.08058,-1.58196 z m 38.148682,6.68366 c -5.716993,0.0369 -12.50363,1.03254 -17.141213,5.60567 -0.534842,0.35452 -0.385751,0.99947 0.01984,0.68126 7.903904,-5.65046 13.754931,-5.51354 18.995923,-5.57033 0.87262,0.10076 1.27111,-0.62857 0.50087,-0.68127 -0.76365,-0.0262 -1.55871,-0.0406 -2.37542,-0.0353 z m -40.294121,1.70656 c -0.309681,-0.0419 -1.505714,2.20371 -1.505714,2.20371 -2.153679,5.66757 -2.833963,12.01481 2.153498,13.71508 4.987463,1.70027 3.188413,-0.41763 0.443223,-1.35942 -2.745197,-0.94178 -3.447034,-6.34804 -1.633413,-11.95893 0.623434,-1.92874 0.704618,-2.57847 0.542406,-2.60044 z"
       sodipodi:nodetypes="sccsccccccccscscccccccssscscssssscscssscccsssccccssccccsscssss" />
    <path
       style="fill:#c8611e;fill-opacity:1;stroke:none;stroke-width:0.317384px;stroke-linecap:butt;stroke-linejoin:miter;stroke-opacity:1"
       d="m 1.7725282,34.845559 c 0.690833,-1.32384 1.873174,-2.27905 5.55422,-1.36022 5.6452548,1.68472 8.7926978,5.76108 15.2457668,7.14114 3.957619,0.84639 4.396509,0.82979 7.40765,0.25617 0.824161,-0.157 1.282406,-1.2185 1.907038,-1.70264 l 0.681288,1.76334 -2.28432,3.84728 -4.328181,1.36257 -10.259401,-2.04386 -11.0609138,-6.05144 z"
       id="path935"
       sodipodi:nodetypes="ccssccccccc" />
    <path
       style="fill:#000000;stroke-width:0.317384"
       d="m 3.7905312,78.792869 c 0,-8.08727 4.120429,-15.80921 10.7456668,-20.13806 4.405498,-2.87849 4.871828,-3.2578 5.795136,-4.71371 1.318683,-2.07935 1.218998,-2.89764 -0.503689,-4.13478 -0.780453,-0.56049 -2.315798,-2.0211 -3.411877,-3.24582 -1.714099,-1.91527 -2.436849,-2.44242 -5.166713,-3.76839 -5.4619338,-2.65302 -9.6165078,-5.72869 -10.81595683,-8.00713 -0.603769,-1.14692 -0.571316,-3.11487 0.06638,-4.02531 1.08144103,-1.54397 4.00779503,-2.03482 7.25835203,-1.21745 2.085134,0.52433 3.2344808,0.35552 3.8366458,-0.5635 0.269636,-0.41153 0.700101,-2.0799 0.956588,-3.70752 2.450594,-15.5509506 15.081093,-26.07295859 30.277693,-25.22324259 9.184709,0.513559 16.872456,4.79412299 21.71633,12.09170959 6.25493,9.423451 6.27913,22.834413 0.0581,32.176313 -1.6498,2.47742 -4.350924,5.32227 -6.376834,6.71613 -1.42874,0.983 -1.77623,1.82614 -1.15588,2.80465 0.14688,0.23167 1.60862,0.68686 3.24833,1.01151 1.6397,0.32466 3.731954,0.8193 4.649464,1.09921 1.58964,0.48496 1.77646,0.47702 3.9673,-0.16863 4.9679,-1.46405 9.47429,-3.99215 13.17084,-7.38885 1.26628,-1.16359 2.42244,-2.11561 2.56922,-2.11561 1.12178,0 2.53124,3.93819 2.81136,7.85525 0.10304,1.44014 0.27315,2.61705 0.37815,2.61537 0.42483,-0.007 4.63625,-3.37149 6.98222,-5.5784 1.41796,-1.33393 2.78086,-2.35315 3.1466,-2.35315 1.09941,0 1.48896,1.83927 1.47886,6.98245 -0.0108,5.21057 -0.69316,9.16954 -2.57102,14.90436 -1.02211,3.88476 -7.63273,12.37152 -10.20599,14.43483 C 57.741593,108.35136 8.6388842,102.85383 3.7905672,78.792869 Z M 97.765397,58.520089 c 0.20747,-1.7592 0.26464,-4.08798 0.13446,-5.47719 l -0.22646,-2.41677 -0.93373,1.71237 c -0.51354,0.9418 -1.23185,1.99801 -1.59624,2.34713 l -0.66252,0.63477 0.1634,-0.63477 c 0.0898,-0.34912 0.26165,-0.87257 0.38173,-1.16324 0.12006,-0.29065 -0.39931,0.0457 -1.15418,0.74748 -1.66923,1.55179 -5.13347,4.06568 -5.6027,4.06568 -0.23017,0 -0.28193,0.85087 -0.15929,2.61841 0.51567,7.43203 -3.44837,15.81953 -9.53429,20.1736 -1.70759,1.22167 -2.03212,0.70533 -0.47378,-0.7538 1.70791,-1.59919 4.76871,-5.91006 5.86004,-8.25337 1.60687,-3.4503 2.34853,-6.5293 2.34853,-9.74997 0,-2.65366 -0.44455,-5.47142 -0.95284,-6.03954 -0.12748,-0.14249 -0.7386,0.43136 -1.35804,1.27521 -0.61944,0.84386 -1.44027,1.81736 -1.82407,2.16336 l -0.6978,0.62909 0.51885,-1.24519 c 0.28538,-0.68486 0.69435,-1.4579 0.9088,-1.71788 0.21447,-0.25998 0.24713,-0.40628 0.0726,-0.32511 -0.17456,0.0812 -1.83681,0.8856 -3.69388,1.78765 -4.72985,2.29744 -13.02049,5.20454 -13.49353,4.73149 -0.0829,-0.0829 1.00093,-0.77231 2.40843,-1.53212 1.40749,-0.7598 2.55921,-1.46208 2.55938,-1.56064 1.8e-4,-0.0985 -1.05343,-0.70021 -2.34134,-1.33703 -2.53138,-1.25168 -5.83308,-2.26838 -9.044674,-2.78516 -2.59367,-0.41736 -3.65867,-0.98143 -4.16614,-2.20659 -0.29427,-0.71041 -0.54914,-0.92597 -0.917514,-0.77598 -0.280533,0.1142 -1.438409,0.26995 -2.573056,0.34606 l -2.062996,0.13838 2.887086,-1.4615 C 62.781387,47.270359 68.111127,38.102289 67.479427,26.755839 66.821527,14.938883 59.127333,5.3048364 48.094203,2.4832294 c -3.505714,-0.89655 -9.867698,-0.898469 -13.38728,-0.0041 -7.395027,1.879297 -14.187396,7.259492 -17.564942,13.9130846 -0.385187,0.758798 -0.654672,1.408289 -0.598854,1.443307 0.05582,0.03502 0.488433,0.229703 0.961366,0.432625 2.621087,1.12465 2.828977,6.497466 0.380563,9.835493 l -0.523046,0.71309 1.517363,-0.6712 c 2.15603,-0.95371 4.944384,-0.95869 6.879725,-0.0122 1.963898,0.96038 3.123874,2.59823 4.37243,6.17373 0.664935,1.90417 1.393122,3.33155 2.097182,4.11086 2.09548,2.31945 0.993605,5.00628 -2.252725,5.4931 -4.598865,0.68964 -9.792894,-0.69137 -16.679283,-4.43474 -4.5053028,-2.44904 -7.0877098,-3.43259 -8.2289788,-3.13414 -0.571237,0.14938 -0.358846,0.38607 1.412984,1.57471 7.5686748,5.07743 18.0383088,8.38239 22.0658058,6.96553 1.783834,-0.62755 2.221687,-0.63601 2.221687,-0.043 0,0.6981 -1.24914,1.38731 -3.192428,1.7614 -1.915885,0.36882 -6.463794,-0.0656 -8.608469,-0.82228 -0.666516,-0.23518 -1.211845,-0.36823 -1.211845,-0.29568 0,0.0726 0.724023,0.81602 1.60894,1.65218 3.306074,3.12393 8.050577,5.3029 14.101567,6.47631 4.37211,0.84785 4.75284,0.99874 3.11817,1.23583 -2.972831,0.43119 -9.012857,-0.67057 -12.260685,-2.23647 -1.121797,-0.54085 -1.219745,-0.54422 -1.373777,-0.0471 -0.751335,2.42433 -2.554069,4.45393 -5.522631,6.21761 -6.139221,3.64744 -10.1667468,9.16676 -11.4294438,15.66293 C 3.5804762,108.52567 92.553617,107.1406 97.765417,58.520099 Z m -87.623418,18.68393 c 0.0086,-2.14929 1.103271,-5.0359 2.912568,-7.68069 1.576872,-2.30504 1.538589,-1.48815 -0.08181,1.74561 -0.852835,1.70198 -1.724667,3.80861 -1.937403,4.68141 -0.469309,1.92548 -0.898482,2.52775 -0.893355,1.25367 z m 62.203498,-4.06542 c 0,-0.11684 0.66731,-1.03157 1.48292,-2.03283 1.71768,-2.1087 1.63902,-2.18092 -1.84917,-1.69753 -1.27129,0.17617 -2.37147,0.26028 -2.44484,0.18691 -0.48549,-0.48549 5.7329,-1.70711 6.73407,-1.32293 0.48897,0.18762 0.49712,0.29502 0.0825,1.08671 -0.54922,1.04868 -4.00548,4.31009 -4.00548,3.77967 z m -20.312583,-1.72346 c 0,-0.50791 3.597319,-3.73039 5.236839,-4.69114 l 1.58692,-0.92993 -2.09761,-0.26956 c -1.93146,-0.24822 -4.829479,0.0351 -9.328217,0.91223 l -0.952152,0.18562 0.793461,-0.48202 c 0.436403,-0.26512 1.578985,-0.73202 2.539072,-1.03758 2.402568,-0.7646 8.218256,-0.75108 9.952556,0.0232 0.67347,0.30065 1.17335,0.59374 1.11084,0.6513 -0.0625,0.0576 -1.22821,0.76088 -2.59046,1.56293 -1.36225,0.80204 -3.32606,2.11174 -4.36403,2.91044 -1.037969,0.79871 -1.887219,1.32276 -1.887219,1.16457 z M 36.957156,35.201419 c -5.377957,-2.4821 -4.58286,-10.456926 1.204104,-12.077177 4.515803,-1.264348 8.978322,3.110727 7.828904,7.675477 -0.991831,3.93893 -5.390993,6.08259 -9.033008,4.4017 z m 0.616772,-6.45321 c 0.646645,-0.92321 0.623958,-1.60295 -0.08261,-2.475537 -0.482397,-0.595739 -0.685755,-0.653809 -1.243739,-0.355191 -1.345618,0.720158 -1.165106,3.536118 0.226675,3.536118 0.333083,0 0.827939,-0.31742 1.099678,-0.70539 z m 37.970009,30.03035 c 1.12111,-0.45459 3.69699,-1.66858 5.72417,-2.69777 2.0272,-1.02917 3.93582,-1.87124 4.24138,-1.87124 0.48155,0 0.52676,-0.20087 0.33933,-1.50758 -0.25013,-1.74381 -0.82277,-3.93745 -1.11959,-4.28887 -0.11252,-0.13322 -0.45281,0.54519 -0.75618,1.50757 -0.60395,1.91598 -1.13159,2.34681 -0.89433,0.73027 l 0.14963,-1.01954 -1.53408,1.35037 c -0.84376,0.74269 -2.3831,1.8661 -3.42078,2.49645 -1.95702,1.18884 -8.27081,3.89715 -9.09716,3.90226 -0.25925,10e-4 0.0978,0.30681 0.79346,0.67824 0.69566,0.37144 1.54656,0.87132 1.89088,1.11085 0.87031,0.60543 1.35194,0.5543 3.68327,-0.39101 z M 30.783929,41.982119 c 1.249989,-0.6464 1.203432,-1.55249 -0.168448,-3.27822 -0.697342,-0.87722 -1.395667,-2.35574 -1.911695,-4.04753 -0.85428,-2.80075 -2.035904,-4.52754 -3.679879,-5.37767 -1.460475,-0.75524 -4.347345,-0.58816 -6.254013,0.36198 -0.907081,0.45202 -1.649235,0.9519 -1.649235,1.11084 0,0.15896 0.933095,0.289 2.073545,0.289 1.578404,0 2.444605,0.18803 3.627454,0.78743 2.335759,1.18362 2.170932,1.41331 -0.551016,0.76788 -1.348721,-0.31982 -2.496356,-0.58635 -2.550299,-0.59231 -0.05394,-0.006 -0.0098,0.13197 0.09808,0.30653 0.262124,0.42413 0.05244,0.40048 -2.539072,-0.28643 -3.106079,-0.82329 -5.554219,-1.12985 -5.554219,-0.69549 0,0.19093 0.188849,0.34716 0.419667,0.34716 0.753079,0 6.868561,4.59496 6.516762,4.89646 -0.06197,0.0531 -1.774036,-0.85956 -3.804586,-2.02816 -3.862566,-2.22296 -8.3279638,-4.14106 -10.2608478,-4.14106 -1.267057,0 -2.658288,0.75092 -3.061784,1.34726 -0.89502503,1.3228 0.480382,3.90265 1.602277,3.56358 0.225491,-0.0681 0.572529,0.0524 0.826988,-0.1588 0.827766,-0.68698 3.731585,-0.2021 6.0873038,1.01645 1.182662,0.61177 3.757544,1.9448 5.72196,2.96231 1.964416,1.0175 4.74946,2.17304 6.188987,2.56787 3.19055,0.87512 7.413023,1.00957 8.82207,0.28092 z M 16.481031,22.977384 c -0.0082,-1.117502 -0.522842,-1.672162 -1.176295,-1.267678 -0.688145,0.425957 -0.910803,1.898526 -0.383194,2.534259 0.336853,0.40588 0.460624,0.3972 0.975087,-0.06839 0.324094,-0.293301 0.587075,-0.832488 0.584402,-1.198198 z"
       id="path897"
       sodipodi:nodetypes="cssssssssssssssssssssccssccsccscssccssssssssssscsssssssssssscssscsssscscssssssssssssssscsccsssssssssssssssscsscsssssssssssssssssssssssscsscssssssssssssccsssssssscsssssssssss" />
  </g>
</svg>
